<svg width="56" height="56" viewBox="0 0 56 56" fill="none" xmlns="http://www.w3.org/2000/svg">
<path d="M25.5 0L25.5 30.5L56 30.5C56 13.6553 42.3447 1.47261e-06 25.5 0Z" fill="white"/>
<path d="M43 34C43 38.2523 41.7391 42.4091 39.3766 45.9448C37.0142 49.4804 33.6563 52.2362 29.7277 53.8634C25.7991 55.4907 21.4762 55.9165 17.3056 55.0869C13.135 54.2573 9.30404 52.2097 6.29721 49.2028C3.29038 46.196 1.24271 42.3651 0.413126 38.1945C-0.416456 34.0239 0.00931561 29.7009 1.6366 25.7723C3.26388 21.8437 6.01959 18.4859 9.55525 16.1234C13.0909 13.761 17.2477 12.5 21.5 12.5V34H43Z" fill="white"/>
</svg>
